<svg width="375" height="498" viewBox="0 0 375 498" fill="none" xmlns="http://www.w3.org/2000/svg">
<g clip-path="url(#clip0_1_76)">
<rect width="441.067" height="203.202" transform="matrix(0.690621 -0.723216 0.690621 0.723216 141.253 162.504)" fill="url(#paint0_linear_1_76)"/>
<rect opacity="0.5" width="532.399" height="194.662" transform="matrix(0.692518 -0.721401 0.692518 0.721401 153.608 220.362)" fill="url(#paint1_linear_1_76)"/>
<rect width="382.094" height="89.6374" transform="matrix(0.684498 -0.729015 0.684498 0.729015 130.914 301.954)" fill="url(#paint2_linear_1_76)"/>
<rect width="239.35" height="29.0562" transform="matrix(0.666904 -0.745144 0.666904 0.745144 204.217 395.15)" fill="url(#paint3_linear_1_76)"/>
<rect opacity="0.4" width="382.094" height="89.6374" transform="matrix(0.684498 -0.729015 0.684498 0.729015 -9.33304 231.765)" fill="url(#paint4_linear_1_76)"/>
</g>
<defs>
<linearGradient id="paint0_linear_1_76" x1="110.267" y1="50.8006" x2="110.267" y2="50.8006" gradientUnits="userSpaceOnUse">
<stop offset="1" stop-color="white"/>
<stop stop-color="white" stop-opacity="0"/>
</linearGradient>
<linearGradient id="paint1_linear_1_76" x1="133.1" y1="48.6656" x2="133.1" y2="48.6656" gradientUnits="userSpaceOnUse">
<stop offset="1" stop-color="white"/>
<stop stop-color="white" stop-opacity="0"/>
</linearGradient>
<linearGradient id="paint2_linear_1_76" x1="95.5234" y1="22.4093" x2="95.5234" y2="22.4093" gradientUnits="userSpaceOnUse">
<stop offset="1" stop-color="white"/>
<stop stop-color="white" stop-opacity="0"/>
</linearGradient>
<linearGradient id="paint3_linear_1_76" x1="59.8374" y1="7.26406" x2="59.8374" y2="7.26406" gradientUnits="userSpaceOnUse">
<stop offset="1" stop-color="white"/>
<stop stop-color="white" stop-opacity="0"/>
</linearGradient>
<linearGradient id="paint4_linear_1_76" x1="95.5234" y1="22.4093" x2="95.5234" y2="22.4093" gradientUnits="userSpaceOnUse">
<stop offset="1" stop-color="white"/>
<stop stop-color="white" stop-opacity="0"/>
</linearGradient>
<clipPath id="clip0_1_76">
<rect width="617.596" height="576.01" fill="white" transform="translate(-78.7487 -78.0099)"/>
</clipPath>
</defs>
</svg>
